<svg width="32" height="32" viewBox="0 0 32 32" fill="none" xmlns="http://www.w3.org/2000/svg">
<g clip-path="url(#clip0_904_8400)">
<path opacity="0.2" d="M17.0607 18.8052C16.7214 18.9346 16.3613 19.0007 15.9982 19.0002C15.3465 19.0001 14.7126 18.7877 14.1923 18.3953C13.672 18.0029 13.2937 17.4518 13.1144 16.8252L4.1232 19.3914C4.08442 20.2925 4.23357 21.1917 4.56116 22.032C4.88875 22.8722 5.38761 23.6351 6.02602 24.2721C6.66442 24.9091 7.4284 25.4063 8.26937 25.7321C9.11034 26.0578 10.0099 26.205 10.9108 26.1643C11.8118 26.1235 12.6944 25.8957 13.5025 25.4954C14.3106 25.0951 15.0266 24.531 15.6049 23.8389C16.1832 23.1469 16.6112 22.3421 16.8616 21.4757C17.112 20.6093 17.1794 19.7003 17.0594 18.8064L17.0607 18.8052Z" fill="currentColor"/>
<path opacity="0.2" d="M13.0396 15.5173C13.1064 15.1076 13.2575 14.7161 13.4834 14.3678C13.7092 14.0194 14.0049 13.7218 14.3518 13.4936C14.6986 13.2654 15.089 13.1117 15.4983 13.0422C15.9076 12.9727 16.3269 12.9889 16.7296 13.0898L19.0009 4.02106C18.2398 3.54064 17.3873 3.22351 16.4972 3.08976C15.6072 2.956 14.6991 3.00854 13.8304 3.24404C12.9618 3.47954 12.1515 3.89287 11.4509 4.45785C10.7503 5.02283 10.1747 5.72715 9.76049 6.52619C9.34629 7.32524 9.10255 8.20159 9.04469 9.09975C8.98684 9.9979 9.11614 10.8983 9.4244 11.7439C9.73266 12.5894 10.2132 13.3618 10.8355 14.012C11.4578 14.6622 12.2084 15.1761 13.0396 15.5211V15.5173Z" fill="currentColor"/>
<path opacity="0.2" d="M25.1245 13.1873C24.007 12.5419 22.7227 12.2437 21.4351 12.3307C20.1475 12.4178 18.915 12.8861 17.8945 13.6761C18.2157 13.9388 18.4789 14.2652 18.6675 14.6348C18.8561 15.0044 18.966 15.4091 18.9902 15.8234C19.0144 16.2376 18.9524 16.6523 18.8081 17.0414C18.6638 17.4304 18.4404 17.7853 18.152 18.0836L24.8695 24.5836C25.9043 24.0462 26.7754 23.2404 27.3917 22.2505C28.0079 21.2607 28.3466 20.1234 28.3721 18.9577C28.3977 17.792 28.1092 16.6409 27.537 15.625C26.9647 14.6091 26.1297 13.7658 25.1195 13.1836L25.1245 13.1873Z" fill="currentColor"/>
<path d="M16 19C17.6569 19 19 17.6569 19 16C19 14.3431 17.6569 13 16 13C14.3431 13 13 14.3431 13 16C13 17.6569 14.3431 19 16 19Z" stroke="currentColor" stroke-width="2" stroke-linecap="round" stroke-linejoin="round"/>
<path d="M13.0396 15.5176C12.2084 15.1726 11.4578 14.6588 10.8355 14.0086C10.2132 13.3584 9.73266 12.586 9.4244 11.7404C9.11614 10.8949 8.98684 9.99448 9.04469 9.09633C9.10255 8.19817 9.34629 7.32182 9.76049 6.52278C10.1747 5.72373 10.7503 5.01942 11.4509 4.45443C12.1515 3.88945 12.9618 3.47612 13.8304 3.24062C14.6991 3.00512 15.6072 2.95259 16.4972 3.08634C17.3873 3.22009 18.2398 3.53722 19.0009 4.01764L16.7296 13.0851" stroke="currentColor" stroke-width="2" stroke-linecap="round" stroke-linejoin="round"/>
<path d="M17.0643 18.8062C17.1832 19.6996 17.115 20.608 16.864 21.4736C16.613 22.3392 16.1848 23.1431 15.6065 23.8344C15.0282 24.5256 14.3125 25.0891 13.5048 25.4889C12.6971 25.8887 11.815 26.1162 10.9147 26.157C10.0144 26.1977 9.11541 26.0507 8.27491 25.7254C7.43442 25.4001 6.67075 24.9035 6.03243 24.2673C5.3941 23.6311 4.89506 22.869 4.567 22.0296C4.23895 21.1902 4.08904 20.2917 4.1268 19.3912L13.1156 16.8237" stroke="currentColor" stroke-width="2" stroke-linecap="round" stroke-linejoin="round"/>
<path d="M17.8984 13.6763C18.6127 13.1267 19.4334 12.7316 20.3084 12.5162C21.1835 12.3007 22.0938 12.2695 22.9816 12.4247C23.8693 12.5798 24.7151 12.9179 25.4652 13.4174C26.2154 13.9169 26.8534 14.567 27.3389 15.3263C27.8243 16.0855 28.1466 16.9375 28.2852 17.828C28.4238 18.7185 28.3757 19.628 28.144 20.499C27.9122 21.3699 27.502 22.1831 26.9391 22.8869C26.3763 23.5908 25.6733 24.1699 24.8747 24.5876L18.1572 18.0876" stroke="currentColor" stroke-width="2" stroke-linecap="round" stroke-linejoin="round"/>
</g>
<defs>
<clipPath id="clip0_904_8400">
<rect width="32" height="32" fill="white"/>
</clipPath>
</defs>
</svg>
