<svg width="7" height="13" viewBox="0 0 7 13" fill="none" xmlns="http://www.w3.org/2000/svg">
<path d="M1.3935 6.16163L6.41533 11.1835C6.54778 11.3159 6.61233 11.4719 6.609 11.6513C6.60556 11.8309 6.53761 11.9869 6.40517 12.1193C6.27261 12.2517 6.11661 12.318 5.93717 12.318C5.75772 12.318 5.60172 12.2517 5.46917 12.1193L0.355167 7.01546C0.234611 6.89491 0.145278 6.75985 0.0871667 6.6103C0.0290556 6.46074 0 6.31119 0 6.16163C0 6.01208 0.0290556 5.86252 0.0871667 5.71296C0.145278 5.56341 0.234611 5.42835 0.355167 5.3078L5.46917 0.193631C5.60172 0.0611863 5.75945 -0.00331348 5.94233 0.000130963C6.12522 0.00357541 6.28289 0.0715195 6.41533 0.203964C6.54778 0.336408 6.614 0.492409 6.614 0.671964C6.614 0.851409 6.54778 1.00735 6.41533 1.1398L1.3935 6.16163Z" fill="#1769DB"/>
</svg>
