<svg width="20" height="20" viewBox="0 0 20 20" fill="none" xmlns="http://www.w3.org/2000/svg">
<path opacity="0.2" d="M6.875 13.75C6.875 14.1208 6.76503 14.4834 6.55901 14.7917C6.35298 15.1 6.06014 15.3404 5.71753 15.4823C5.37492 15.6242 4.99792 15.6613 4.63421 15.589C4.27049 15.5166 3.9364 15.338 3.67417 15.0758C3.41195 14.8136 3.23338 14.4795 3.16103 14.1158C3.08868 13.7521 3.12581 13.3751 3.26773 13.0325C3.40964 12.6899 3.64996 12.397 3.95831 12.191C4.26665 11.985 4.62916 11.875 5 11.875C5.49728 11.875 5.97419 12.0725 6.32583 12.4242C6.67746 12.7758 6.875 13.2527 6.875 13.75ZM15 11.875C14.6292 11.875 14.2666 11.985 13.9583 12.191C13.65 12.397 13.4096 12.6899 13.2677 13.0325C13.1258 13.3751 13.0887 13.7521 13.161 14.1158C13.2334 14.4795 13.412 14.8136 13.6742 15.0758C13.9364 15.338 14.2705 15.5166 14.6342 15.589C14.9979 15.6613 15.3749 15.6242 15.7175 15.4823C16.0601 15.3404 16.353 15.1 16.559 14.7917C16.765 14.4834 16.875 14.1208 16.875 13.75C16.875 13.2527 16.6775 12.7758 16.3258 12.4242C15.9742 12.0725 15.4973 11.875 15 11.875ZM12.6828 5.80781C12.5657 5.69082 12.4069 5.62508 12.2414 5.625H3.45937C3.35645 5.62493 3.25511 5.65029 3.16434 5.6988C3.07357 5.74732 2.99618 5.81751 2.93906 5.90312L0.625 9.375H16.25L12.6828 5.80781Z" fill="#1769DB"/>
<path d="M18.75 8.75001H16.5086L13.125 5.36641C13.0093 5.24983 12.8717 5.15741 12.72 5.09451C12.5683 5.0316 12.4056 4.99948 12.2414 5.00001H3.45937C3.25406 5.00039 3.052 5.05134 2.87104 5.14835C2.69009 5.24537 2.53583 5.38546 2.42188 5.55626L0.104688 9.02813C0.036603 9.13102 0.000203795 9.25163 0 9.37501L0 13.125C0 13.4565 0.131696 13.7745 0.366117 14.0089C0.600537 14.2433 0.918479 14.375 1.25 14.375H2.57812C2.71581 14.9128 3.02856 15.3894 3.46707 15.7298C3.90557 16.0702 4.44489 16.2549 5 16.2549C5.55511 16.2549 6.09443 16.0702 6.53293 15.7298C6.97144 15.3894 7.28419 14.9128 7.42188 14.375H12.5781C12.7158 14.9128 13.0286 15.3894 13.4671 15.7298C13.9056 16.0702 14.4449 16.2549 15 16.2549C15.5551 16.2549 16.0944 16.0702 16.5329 15.7298C16.9714 15.3894 17.2842 14.9128 17.4219 14.375H18.75C19.0815 14.375 19.3995 14.2433 19.6339 14.0089C19.8683 13.7745 20 13.4565 20 13.125V10C20 9.66849 19.8683 9.35054 19.6339 9.11612C19.3995 8.8817 19.0815 8.75001 18.75 8.75001ZM3.45937 6.25001H12.2414L14.7414 8.75001H1.79688L3.45937 6.25001ZM5 15C4.75277 15 4.5111 14.9267 4.30554 14.7893C4.09998 14.652 3.93976 14.4568 3.84515 14.2284C3.75054 14 3.72579 13.7486 3.77402 13.5061C3.82225 13.2637 3.9413 13.0409 4.11612 12.8661C4.29093 12.6913 4.51366 12.5723 4.75614 12.524C4.99861 12.4758 5.24995 12.5005 5.47835 12.5952C5.70676 12.6898 5.90199 12.85 6.03934 13.0555C6.17669 13.2611 6.25 13.5028 6.25 13.75C6.25 14.0815 6.1183 14.3995 5.88388 14.6339C5.64946 14.8683 5.33152 15 5 15ZM15 15C14.7528 15 14.5111 14.9267 14.3055 14.7893C14.1 14.652 13.9398 14.4568 13.8451 14.2284C13.7505 14 13.7258 13.7486 13.774 13.5061C13.8222 13.2637 13.9413 13.0409 14.1161 12.8661C14.2909 12.6913 14.5137 12.5723 14.7561 12.524C14.9986 12.4758 15.2499 12.5005 15.4784 12.5952C15.7068 12.6898 15.902 12.85 16.0393 13.0555C16.1767 13.2611 16.25 13.5028 16.25 13.75C16.25 14.0815 16.1183 14.3995 15.8839 14.6339C15.6495 14.8683 15.3315 15 15 15ZM18.75 13.125H17.4219C17.2842 12.5872 16.9714 12.1106 16.5329 11.7702C16.0944 11.4299 15.5551 11.2451 15 11.2451C14.4449 11.2451 13.9056 11.4299 13.4671 11.7702C13.0286 12.1106 12.7158 12.5872 12.5781 13.125H7.42188C7.28419 12.5872 6.97144 12.1106 6.53293 11.7702C6.09443 11.4299 5.55511 11.2451 5 11.2451C4.44489 11.2451 3.90557 11.4299 3.46707 11.7702C3.02856 12.1106 2.71581 12.5872 2.57812 13.125H1.25V10H18.75V13.125Z" fill="#1769DB"/>
</svg>
