<svg width="16" height="16" viewBox="0 0 16 16" fill="none" xmlns="http://www.w3.org/2000/svg">
<path opacity="0.2" d="M5.5 11C5.5 11.2967 5.41203 11.5867 5.2472 11.8334C5.08238 12.08 4.84811 12.2723 4.57403 12.3858C4.29994 12.4994 3.99834 12.5291 3.70736 12.4712C3.41639 12.4133 3.14912 12.2704 2.93934 12.0607C2.72956 11.8509 2.5867 11.5836 2.52882 11.2926C2.47094 11.0017 2.50065 10.7001 2.61418 10.426C2.72771 10.1519 2.91997 9.91762 3.16664 9.7528C3.41332 9.58797 3.70333 9.5 4 9.5C4.39782 9.5 4.77936 9.65804 5.06066 9.93934C5.34196 10.2206 5.5 10.6022 5.5 11ZM12 9.5C11.7033 9.5 11.4133 9.58797 11.1666 9.7528C10.92 9.91762 10.7277 10.1519 10.6142 10.426C10.5006 10.7001 10.4709 11.0017 10.5288 11.2926C10.5867 11.5836 10.7296 11.8509 10.9393 12.0607C11.1491 12.2704 11.4164 12.4133 11.7074 12.4712C11.9983 12.5291 12.2999 12.4994 12.574 12.3858C12.8481 12.2723 13.0824 12.08 13.2472 11.8334C13.412 11.5867 13.5 11.2967 13.5 11C13.5 10.6022 13.342 10.2206 13.0607 9.93934C12.7794 9.65804 12.3978 9.5 12 9.5ZM10.1462 4.64625C10.0526 4.55266 9.92556 4.50006 9.79313 4.5H2.7675C2.68516 4.49995 2.60408 4.52023 2.53147 4.55904C2.45885 4.59786 2.39695 4.65401 2.35125 4.7225L0.5 7.5H13L10.1462 4.64625Z" fill="currentColor"/>
<path d="M15 7.00001H13.2069L10.5 4.29313C10.4075 4.19987 10.2973 4.12593 10.176 4.0756C10.0546 4.02528 9.9245 3.99959 9.79313 4.00001H2.7675C2.60325 4.00031 2.4416 4.04107 2.29684 4.11868C2.15207 4.19629 2.02866 4.30837 1.9375 4.44501L0.08375 7.2225C0.0292824 7.30482 0.000163036 7.4013 0 7.50001L0 10.5C0 10.7652 0.105357 11.0196 0.292893 11.2071C0.48043 11.3946 0.734784 11.5 1 11.5H2.0625C2.17265 11.9302 2.42285 12.3115 2.77366 12.5838C3.12446 12.8561 3.55591 13.0039 4 13.0039C4.44409 13.0039 4.87554 12.8561 5.22635 12.5838C5.57715 12.3115 5.82735 11.9302 5.9375 11.5H10.0625C10.1727 11.9302 10.4229 12.3115 10.7737 12.5838C11.1245 12.8561 11.5559 13.0039 12 13.0039C12.4441 13.0039 12.8755 12.8561 13.2263 12.5838C13.5771 12.3115 13.8273 11.9302 13.9375 11.5H15C15.2652 11.5 15.5196 11.3946 15.7071 11.2071C15.8946 11.0196 16 10.7652 16 10.5V8.00001C16 7.73479 15.8946 7.48043 15.7071 7.2929C15.5196 7.10536 15.2652 7.00001 15 7.00001ZM2.7675 5.00001H9.79313L11.7931 7.00001H1.4375L2.7675 5.00001ZM4 12C3.80222 12 3.60888 11.9414 3.44443 11.8315C3.27998 11.7216 3.15181 11.5654 3.07612 11.3827C3.00043 11.2 2.98063 10.9989 3.01921 10.8049C3.0578 10.6109 3.15304 10.4328 3.29289 10.2929C3.43275 10.153 3.61093 10.0578 3.80491 10.0192C3.99889 9.98063 4.19996 10.0004 4.38268 10.0761C4.56541 10.1518 4.72159 10.28 4.83147 10.4444C4.94135 10.6089 5 10.8022 5 11C5 11.2652 4.89464 11.5196 4.70711 11.7071C4.51957 11.8946 4.26522 12 4 12ZM12 12C11.8022 12 11.6089 11.9414 11.4444 11.8315C11.28 11.7216 11.1518 11.5654 11.0761 11.3827C11.0004 11.2 10.9806 10.9989 11.0192 10.8049C11.0578 10.6109 11.153 10.4328 11.2929 10.2929C11.4327 10.153 11.6109 10.0578 11.8049 10.0192C11.9989 9.98063 12.2 10.0004 12.3827 10.0761C12.5654 10.1518 12.7216 10.28 12.8315 10.4444C12.9414 10.6089 13 10.8022 13 11C13 11.2652 12.8946 11.5196 12.7071 11.7071C12.5196 11.8946 12.2652 12 12 12ZM15 10.5H13.9375C13.8273 10.0698 13.5771 9.68849 13.2263 9.41619C12.8755 9.14389 12.4441 8.99608 12 8.99608C11.5559 8.99608 11.1245 9.14389 10.7737 9.41619C10.4229 9.68849 10.1727 10.0698 10.0625 10.5H5.9375C5.82735 10.0698 5.57715 9.68849 5.22635 9.41619C4.87554 9.14389 4.44409 8.99608 4 8.99608C3.55591 8.99608 3.12446 9.14389 2.77366 9.41619C2.42285 9.68849 2.17265 10.0698 2.0625 10.5H1V8.00001H15V10.5Z" fill="currentColor"/>
</svg>
