<svg width="20" height="20" viewBox="0 0 20 20" fill="none" xmlns="http://www.w3.org/2000/svg">
  <path d="M2.5 5H4.16667H17.5" stroke="#1769DB" stroke-width="1.5" stroke-linecap="round" stroke-linejoin="round"/>
  <path d="M6.66699 5.00016V3.3335C6.66699 2.89147 6.84259 2.46754 7.15515 2.15498C7.46771 1.84242 7.89163 1.66683 8.33366 1.66683H11.667C12.109 1.66683 12.5329 1.84242 12.8455 2.15498C13.1581 2.46754 13.3337 2.89147 13.3337 3.3335V5.00016M15.8337 5.00016V16.6668C15.8337 17.1089 15.6581 17.5328 15.3455 17.8453C15.0329 18.1579 14.609 18.3335 14.167 18.3335H5.83366C5.39163 18.3335 4.96771 18.1579 4.65515 17.8453C4.34259 17.5328 4.16699 17.1089 4.16699 16.6668V5.00016H15.8337Z" stroke="#1769DB" stroke-width="1.5" stroke-linecap="round" stroke-linejoin="round"/>
  <path d="M8.33301 9.16683V14.1668" stroke="#1769DB" stroke-width="1.5" stroke-linecap="round" stroke-linejoin="round"/>
  <path d="M11.667 9.16683V14.1668" stroke="#1769DB" stroke-width="1.5" stroke-linecap="round" stroke-linejoin="round"/>
</svg>
