<svg width="14" height="16" viewBox="0 0 14 16" fill="none" xmlns="http://www.w3.org/2000/svg">
<path d="M9.21715 12.8596C8.68817 12.8596 8.23921 12.6751 7.87027 12.3062C7.50132 11.9371 7.31685 11.4881 7.31685 10.9591C7.31685 10.4301 7.50132 9.98118 7.87027 9.61224C8.23921 9.24329 8.68817 9.05882 9.21715 9.05882C9.74613 9.05882 10.1952 9.24329 10.5642 9.61224C10.9332 9.98118 11.1176 10.4301 11.1176 10.9591C11.1176 11.4881 10.9332 11.9371 10.5642 12.3062C10.1952 12.6751 9.74613 12.8596 9.21715 12.8596ZM1.48874 15.742C1.07272 15.742 0.720588 15.5979 0.432353 15.3096C0.144118 15.0214 0 14.6693 0 14.2532V3.23071C0 2.81469 0.144118 2.46256 0.432353 2.17432C0.720588 1.88609 1.07272 1.74197 1.48874 1.74197H2.62891V0.633294C2.62891 0.452804 2.68937 0.302098 2.81029 0.181176C2.93122 0.0603919 3.08192 0 3.26241 0C3.44304 0 3.59375 0.0603919 3.71453 0.181176C3.83545 0.302098 3.89591 0.452804 3.89591 0.633294V1.74197H10.1358V0.617647C10.1358 0.442373 10.1949 0.295578 10.3131 0.177264C10.4314 0.0590879 10.5782 0 10.7534 0C10.9287 0 11.0754 0.0590879 11.1936 0.177264C11.3119 0.295578 11.3711 0.442373 11.3711 0.617647V1.74197H12.5113C12.9273 1.74197 13.2794 1.88609 13.5676 2.17432C13.8559 2.46256 14 2.81469 14 3.23071V14.2532C14 14.6693 13.8559 15.0214 13.5676 15.3096C13.2794 15.5979 12.9273 15.742 12.5113 15.742H1.48874ZM1.48874 14.5067H12.5113C12.5747 14.5067 12.6327 14.4803 12.6854 14.4274C12.7383 14.3747 12.7647 14.3166 12.7647 14.2532V6.52482H1.23529V14.2532C1.23529 14.3166 1.26172 14.3747 1.31456 14.4274C1.36726 14.4803 1.42532 14.5067 1.48874 14.5067Z" fill="currentColor"/>
</svg>
