<svg width="20" height="20" viewBox="0 0 20 20" fill="none" xmlns="http://www.w3.org/2000/svg">
<path opacity="0.2" d="M16.25 5.625V14.375C16.25 14.5408 16.1842 14.6997 16.0669 14.8169C15.9497 14.9342 15.7908 15 15.625 15H13.75V8.125L10.625 5H6.25V3.125C6.25 2.95924 6.31585 2.80027 6.43306 2.68306C6.55027 2.56585 6.70924 2.5 6.875 2.5H13.125L16.25 5.625Z" fill="#1769DB"/>
<path d="M16.6922 5.18281L13.5672 2.05781C13.5091 1.99979 13.4402 1.95378 13.3643 1.92241C13.2884 1.89105 13.2071 1.87494 13.125 1.875H6.875C6.54348 1.875 6.22554 2.0067 5.99112 2.24112C5.7567 2.47554 5.625 2.79348 5.625 3.125V4.375H4.375C4.04348 4.375 3.72554 4.5067 3.49112 4.74112C3.2567 4.97554 3.125 5.29348 3.125 5.625V16.875C3.125 17.2065 3.2567 17.5245 3.49112 17.7589C3.72554 17.9933 4.04348 18.125 4.375 18.125H13.125C13.4565 18.125 13.7745 17.9933 14.0089 17.7589C14.2433 17.5245 14.375 17.2065 14.375 16.875V15.625H15.625C15.9565 15.625 16.2745 15.4933 16.5089 15.2589C16.7433 15.0245 16.875 14.7065 16.875 14.375V5.625C16.8751 5.5429 16.859 5.46159 16.8276 5.38572C16.7962 5.30985 16.7502 5.2409 16.6922 5.18281ZM13.125 16.875H4.375V5.625H10.3664L13.125 8.38359V14.9875C13.125 14.9922 13.125 14.9961 13.125 15C13.125 15.0039 13.125 15.0078 13.125 15.0125V16.875ZM15.625 14.375H14.375V8.125C14.3751 8.0429 14.359 7.96159 14.3276 7.88572C14.2962 7.80985 14.2502 7.7409 14.1922 7.68281L11.0672 4.55781C11.0091 4.49979 10.9402 4.45378 10.8643 4.42241C10.7884 4.39105 10.7071 4.37494 10.625 4.375H6.875V3.125H12.8664L15.625 5.88359V14.375ZM11.25 11.875C11.25 12.0408 11.1842 12.1997 11.0669 12.3169C10.9497 12.4342 10.7908 12.5 10.625 12.5H6.875C6.70924 12.5 6.55027 12.4342 6.43306 12.3169C6.31585 12.1997 6.25 12.0408 6.25 11.875C6.25 11.7092 6.31585 11.5503 6.43306 11.4331C6.55027 11.3158 6.70924 11.25 6.875 11.25H10.625C10.7908 11.25 10.9497 11.3158 11.0669 11.4331C11.1842 11.5503 11.25 11.7092 11.25 11.875ZM11.25 14.375C11.25 14.5408 11.1842 14.6997 11.0669 14.8169C10.9497 14.9342 10.7908 15 10.625 15H6.875C6.70924 15 6.55027 14.9342 6.43306 14.8169C6.31585 14.6997 6.25 14.5408 6.25 14.375C6.25 14.2092 6.31585 14.0503 6.43306 13.9331C6.55027 13.8158 6.70924 13.75 6.875 13.75H10.625C10.7908 13.75 10.9497 13.8158 11.0669 13.9331C11.1842 14.0503 11.25 14.2092 11.25 14.375Z" fill="#1769DB"/>
</svg>
