<svg width="32" height="32" viewBox="0 0 32 32" fill="none" xmlns="http://www.w3.org/2000/svg">
<g clip-path="url(#clip0_904_8421)">
<path opacity="0.2" d="M28 20L4 20L4 25C4 25.2652 4.10536 25.5196 4.29289 25.7071C4.48043 25.8946 4.73478 26 5 26L27 26C27.2652 26 27.5196 25.8946 27.7071 25.7071C27.8946 25.5196 28 25.2652 28 25L28 20Z" fill="currentColor"/>
<path d="M5 26L27 26C27.5523 26 28 25.5523 28 25L28 7C28 6.44772 27.5523 6 27 6L5 6C4.44772 6 4 6.44772 4 7L4 25C4 25.5523 4.44772 26 5 26Z" stroke="currentColor" stroke-width="2" stroke-linecap="round" stroke-linejoin="round"/>
<path d="M28 20L4 20" stroke="currentColor" stroke-width="2" stroke-linecap="round" stroke-linejoin="round"/>
</g>
<defs>
<clipPath id="clip0_904_8421">
<rect width="32" height="32" fill="white" transform="matrix(-1 0 0 -1 32 32)"/>
</clipPath>
</defs>
</svg>
