<svg width="32" height="32" viewBox="0 0 32 32" fill="none" xmlns="http://www.w3.org/2000/svg">
<g clip-path="url(#clip0_904_8429)">
<path opacity="0.2" d="M13.0013 15.8673C12.2019 14.4206 11.8702 12.7618 12.0518 11.1189C12.2335 9.47608 12.9195 7.92981 14.0156 6.6927C15.1118 5.45558 16.5642 4.58834 18.1732 4.21021C19.7822 3.83208 21.4689 3.96161 23.0013 4.58101L18.0013 9.99976L18.7088 13.2923L22.0013 13.9998L27.42 8.99976C28.0394 10.5322 28.169 12.2188 27.7908 13.8279C27.4127 15.4369 26.5455 16.8893 25.3084 17.9854C24.0712 19.0816 22.525 19.7676 20.8821 19.9492C19.2393 20.1309 17.5805 19.7992 16.1338 18.9998L9.1263 27.1248C8.56271 27.6883 7.79833 28.005 7.0013 28.005C6.20427 28.005 5.43988 27.6883 4.8763 27.1248C4.31271 26.5612 3.99609 25.7968 3.99609 24.9998C3.99609 24.2027 4.31271 23.4383 4.8763 22.8748L13.0013 15.8673Z" fill="#1769DB"/>
<path d="M13.0013 15.8673C12.2019 14.4206 11.8702 12.7618 12.0518 11.1189C12.2335 9.47608 12.9195 7.92981 14.0156 6.6927C15.1118 5.45558 16.5642 4.58834 18.1732 4.21021C19.7822 3.83208 21.4689 3.96161 23.0013 4.58101L18.0013 9.99976L18.7088 13.2923L22.0013 13.9998L27.4201 8.99976C28.0394 10.5322 28.169 12.2188 27.7908 13.8279C27.4127 15.4369 26.5455 16.8893 25.3084 17.9854C24.0712 19.0816 22.525 19.7676 20.8821 19.9492C19.2393 20.1309 17.5805 19.7992 16.1338 18.9998L9.1263 27.1248C8.56271 27.6883 7.79833 28.005 7.0013 28.005C6.20427 28.005 5.43988 27.6883 4.8763 27.1248C4.31271 26.5612 3.99609 25.7968 3.99609 24.9998C3.99609 24.2027 4.31271 23.4383 4.8763 22.8748L13.0013 15.8673Z" stroke="#1769DB" stroke-width="2" stroke-linecap="round" stroke-linejoin="round"/>
</g>
<defs>
<clipPath id="clip0_904_8429">
<rect width="32" height="32" fill="white"/>
</clipPath>
</defs>
</svg>
