<svg width="16" height="16" viewBox="0 0 16 16" fill="none" xmlns="http://www.w3.org/2000/svg">
<path opacity="0.2" d="M12 3.5V12.5H4V3.5H12Z" fill="#1769DB"/>
<path d="M11 1H5C4.60218 1 4.22064 1.15804 3.93934 1.43934C3.65804 1.72064 3.5 2.10218 3.5 2.5V13.5C3.5 13.8978 3.65804 14.2794 3.93934 14.5607C4.22064 14.842 4.60218 15 5 15H11C11.3978 15 11.7794 14.842 12.0607 14.5607C12.342 14.2794 12.5 13.8978 12.5 13.5V2.5C12.5 2.10218 12.342 1.72064 12.0607 1.43934C11.7794 1.15804 11.3978 1 11 1ZM4.5 4H11.5V12H4.5V4ZM5 2H11C11.1326 2 11.2598 2.05268 11.3536 2.14645C11.4473 2.24021 11.5 2.36739 11.5 2.5V3H4.5V2.5C4.5 2.36739 4.55268 2.24021 4.64645 2.14645C4.74021 2.05268 4.86739 2 5 2ZM11 14H5C4.86739 14 4.74021 13.9473 4.64645 13.8536C4.55268 13.7598 4.5 13.6326 4.5 13.5V13H11.5V13.5C11.5 13.6326 11.4473 13.7598 11.3536 13.8536C11.2598 13.9473 11.1326 14 11 14Z" fill="#1769DB"/>
</svg>
