<svg width="16" height="16" viewBox="0 0 16 16" fill="none" xmlns="http://www.w3.org/2000/svg">
<rect width="16" height="16" fill="white"/>
<path opacity="0.2" d="M13.9963 10.8797C13.8991 11.6054 13.5418 12.2711 12.9907 12.753C12.4395 13.2349 11.7321 13.5003 11 13.4997C8.74566 13.4997 6.58365 12.6042 4.98959 11.0101C3.39553 9.41609 2.5 7.25408 2.5 4.99974C2.49944 4.26762 2.7648 3.56021 3.24673 3.00908C3.72865 2.45794 4.39435 2.10059 5.12 2.00349C5.22727 1.99075 5.33578 2.01309 5.4293 2.06717C5.52281 2.12125 5.5963 2.20416 5.63875 2.30349L6.95938 5.25349C6.99182 5.32926 7.00504 5.41188 6.99784 5.49398C6.99064 5.57609 6.96326 5.65515 6.91813 5.72412L5.5825 7.31224C5.53512 7.38373 5.50711 7.46629 5.50119 7.55185C5.49528 7.63741 5.51166 7.72304 5.54875 7.80037C6.06563 8.85849 7.15938 9.93912 8.22063 10.451C8.29836 10.4879 8.38439 10.5039 8.4702 10.4975C8.55602 10.491 8.63867 10.4623 8.71 10.4141L10.2725 9.08287C10.3417 9.03679 10.4214 9.00872 10.5042 9.00119C10.5871 8.99366 10.6705 9.00691 10.7469 9.03974L13.6944 10.3604C13.7942 10.4025 13.8776 10.476 13.932 10.5697C13.9865 10.6633 14.009 10.7722 13.9963 10.8797Z" fill="currentColor"/>
<path d="M13.8981 9.90362L10.9538 8.58425L10.9456 8.5805C10.7928 8.51512 10.626 8.48888 10.4605 8.50416C10.2949 8.51944 10.1358 8.57575 9.99751 8.668C9.98122 8.67875 9.96557 8.69044 9.95063 8.703L8.42938 9.99987C7.46563 9.53175 6.47063 8.54425 6.00251 7.593L7.30126 6.04862C7.31376 6.033 7.32563 6.01737 7.33688 6.0005C7.42715 5.86256 7.48192 5.70445 7.49631 5.54023C7.5107 5.37601 7.48428 5.21078 7.41938 5.05925V5.05175L6.09626 2.10237C6.01047 1.90441 5.86296 1.73951 5.67575 1.63227C5.48854 1.52504 5.27166 1.48122 5.05751 1.50737C4.21061 1.61882 3.43324 2.03473 2.87059 2.67743C2.30794 3.32014 1.99847 4.14568 2.00001 4.99987C2.00001 9.96237 6.03751 13.9999 11 13.9999C11.8542 14.0014 12.6797 13.6919 13.3224 13.1293C13.9651 12.5666 14.3811 11.7893 14.4925 10.9424C14.5187 10.7283 14.475 10.5115 14.3679 10.3243C14.2607 10.1371 14.096 9.98951 13.8981 9.90362ZM11 12.9999C8.87898 12.9976 6.8455 12.154 5.34571 10.6542C3.84592 9.15438 3.00232 7.12089 3.00001 4.99987C2.99765 4.38955 3.21754 3.79925 3.61859 3.33919C4.01964 2.87913 4.57444 2.58079 5.17938 2.49987C5.17913 2.50237 5.17913 2.50488 5.17938 2.50737L6.49188 5.44487L5.20001 6.99112C5.18689 7.00621 5.17498 7.0223 5.16438 7.03925C5.07033 7.18357 5.01515 7.34975 5.0042 7.52166C4.99325 7.69358 5.0269 7.86541 5.10188 8.0205C5.66813 9.17862 6.83501 10.3367 8.00563 10.9024C8.16186 10.9767 8.33468 11.0091 8.50722 10.9966C8.67976 10.9842 8.8461 10.9271 8.99001 10.8311C9.00605 10.8203 9.02149 10.8086 9.03626 10.7961L10.5556 9.49987L13.4931 10.8155C13.4931 10.8155 13.4981 10.8155 13.5 10.8155C13.4201 11.4213 13.1222 11.9772 12.662 12.3793C12.2019 12.7813 11.611 13.0019 11 12.9999Z" fill="currentColor"/>
</svg>
