<svg width="32" height="32" viewBox="0 0 32 32" fill="none" xmlns="http://www.w3.org/2000/svg">
<g clip-path="url(#clip0_904_8390)">
<path opacity="0.2" d="M20 5C20.6505 5.86476 21.0015 6.9179 21 8V9H11V8C10.9985 6.9179 11.3495 5.86476 12 5H7C6.73478 5 6.48043 5.10536 6.29289 5.29289C6.10536 5.48043 6 5.73478 6 6V27C6 27.2652 6.10536 27.5196 6.29289 27.7071C6.48043 27.8946 6.73478 28 7 28H25C25.2652 28 25.5196 27.8946 25.7071 27.7071C25.8946 27.5196 26 27.2652 26 27V6C26 5.73478 25.8946 5.48043 25.7071 5.29289C25.5196 5.10536 25.2652 5 25 5H20Z" fill="currentColor"/>
<path d="M12 19H20" stroke="currentColor" stroke-width="2" stroke-linecap="round" stroke-linejoin="round"/>
<path d="M12 15H20" stroke="currentColor" stroke-width="2" stroke-linecap="round" stroke-linejoin="round"/>
<path d="M20 5H25C25.2652 5 25.5196 5.10536 25.7071 5.29289C25.8946 5.48043 26 5.73478 26 6V27C26 27.2652 25.8946 27.5196 25.7071 27.7071C25.5196 27.8946 25.2652 28 25 28H7C6.73478 28 6.48043 27.8946 6.29289 27.7071C6.10536 27.5196 6 27.2652 6 27V6C6 5.73478 6.10536 5.48043 6.29289 5.29289C6.48043 5.10536 6.73478 5 7 5H12" stroke="currentColor" stroke-width="2" stroke-linecap="round" stroke-linejoin="round"/>
<path d="M11 9V8C11 6.67392 11.5268 5.40215 12.4645 4.46447C13.4021 3.52678 14.6739 3 16 3C17.3261 3 18.5979 3.52678 19.5355 4.46447C20.4732 5.40215 21 6.67392 21 8V9H11Z" stroke="currentColor" stroke-width="2" stroke-linecap="round" stroke-linejoin="round"/>
</g>
<defs>
<clipPath id="clip0_904_8390">
<rect width="32" height="32" fill="white"/>
</clipPath>
</defs>
</svg>
