<svg width="16" height="16" viewBox="0 0 16 16" fill="none" xmlns="http://www.w3.org/2000/svg">
<path opacity="0.2" d="M12 6C12 6.79113 11.7654 7.56448 11.3259 8.22228C10.8864 8.88008 10.2616 9.39277 9.53074 9.69552C8.79983 9.99827 7.99556 10.0775 7.21964 9.92314C6.44372 9.7688 5.73098 9.38784 5.17157 8.82843C4.61216 8.26902 4.2312 7.55629 4.07686 6.78036C3.92252 6.00444 4.00173 5.20017 4.30448 4.46927C4.60723 3.73836 5.11992 3.11365 5.77772 2.67412C6.43552 2.2346 7.20888 2 8 2C9.06087 2 10.0783 2.42143 10.8284 3.17157C11.5786 3.92172 12 4.93913 12 6Z" fill="currentColor"/>
<path d="M14.431 13.2497C13.4791 11.6041 12.0122 10.4241 10.3003 9.86475C11.1471 9.36066 11.805 8.59255 12.173 7.67837C12.5409 6.76419 12.5987 5.7545 12.3372 4.80435C12.0758 3.85419 11.5098 3.01612 10.7259 2.41883C9.94213 1.82153 8.98392 1.49805 7.99846 1.49805C7.013 1.49805 6.05479 1.82153 5.27098 2.41883C4.48716 3.01612 3.92108 3.85419 3.65967 4.80435C3.39826 5.7545 3.45598 6.76419 3.82395 7.67837C4.19193 8.59255 4.84981 9.36066 5.69659 9.86475C3.98471 10.4235 2.51784 11.6035 1.56596 13.2497C1.53105 13.3067 1.5079 13.37 1.49787 13.436C1.48783 13.502 1.49112 13.5694 1.50754 13.6341C1.52396 13.6988 1.55317 13.7596 1.59346 13.8128C1.63374 13.8661 1.68428 13.9107 1.7421 13.9441C1.79992 13.9775 1.86384 13.999 1.93009 14.0073C1.99634 14.0156 2.06358 14.0105 2.12785 13.9924C2.19211 13.9743 2.2521 13.9435 2.30426 13.9018C2.35643 13.8601 2.39972 13.8084 2.43159 13.7497C3.60909 11.7147 5.69034 10.4997 7.99846 10.4997C10.3066 10.4997 12.3878 11.7147 13.5653 13.7497C13.5972 13.8084 13.6405 13.8601 13.6927 13.9018C13.7448 13.9435 13.8048 13.9743 13.8691 13.9924C13.9333 14.0105 14.0006 14.0156 14.0668 14.0073C14.1331 13.999 14.197 13.9775 14.2548 13.9441C14.3126 13.9107 14.3632 13.8661 14.4035 13.8128C14.4438 13.7596 14.473 13.6988 14.4894 13.6341C14.5058 13.5694 14.5091 13.502 14.4991 13.436C14.489 13.37 14.4659 13.3067 14.431 13.2497ZM4.49846 5.99975C4.49846 5.30751 4.70373 4.63082 5.08832 4.05525C5.4729 3.47968 6.01953 3.03108 6.65907 2.76617C7.29861 2.50126 8.00234 2.43195 8.68128 2.567C9.36021 2.70205 9.98385 3.03539 10.4733 3.52487C10.9628 4.01436 11.2962 4.638 11.4312 5.31693C11.5663 5.99586 11.4969 6.6996 11.232 7.33914C10.9671 7.97868 10.5185 8.52531 9.94296 8.90989C9.36738 9.29448 8.69069 9.49975 7.99846 9.49975C7.07051 9.49875 6.18085 9.12969 5.52468 8.47353C4.86852 7.81736 4.49945 6.9277 4.49846 5.99975Z" fill="currentColor"/>
</svg>
